<svg width="22" height="22" viewBox="0 0 22 22" fill="none" xmlns="http://www.w3.org/2000/svg">
<path d="M11 0C15.2647 0 18.7344 3.46964 18.7344 7.73438C18.7344 9.17529 18.3352 10.5815 17.5798 11.8015L11.4403 21.6953C11.3227 21.8848 11.1155 22 10.8926 22C10.8909 22 10.8892 22 10.8875 22C10.6627 21.9982 10.4551 21.8795 10.3397 21.6867L4.35656 11.697C3.64285 10.5028 3.26562 9.13253 3.26562 7.73438C3.26562 3.46964 6.73527 0 11 0ZM5.46279 11.0351L10.9024 20.1174L16.4842 11.1223C17.113 10.1069 17.4539 8.93535 17.4539 7.73438C17.4539 4.18043 14.5539 1.28047 11 1.28047C7.44605 1.28047 4.55039 4.18043 4.55039 7.73438C4.55039 8.89973 4.86883 10.0413 5.46279 11.0351Z" fill="black"/>
<path d="M11 3.86719C13.1324 3.86719 14.8672 5.60201 14.8672 7.73438C14.8672 9.85312 13.1606 11.6016 11 11.6016C8.81276 11.6016 7.13281 9.82983 7.13281 7.73438C7.13281 5.60201 8.86763 3.86719 11 3.86719ZM11 10.3211C12.429 10.3211 13.5867 9.15952 13.5867 7.73438C13.5867 6.3128 12.4216 5.14766 11 5.14766C9.57842 5.14766 8.41758 6.3128 8.41758 7.73438C8.41758 9.13872 9.54834 10.3211 11 10.3211Z" fill="black"/>
</svg>
