<svg width="166" height="166" viewBox="0 0 166 166" fill="none" xmlns="http://www.w3.org/2000/svg">
<circle cx="83" cy="83" r="83" fill="#9ABF11"/>
<path d="M76.8119 76.5278C76.3149 75.993 75.6073 75.6798 74.8706 75.6686C73.3888 75.6499 72.1629 76.8112 72.1378 78.2668C72.1298 78.736 72.5101 79.1227 72.9873 79.1306C72.9924 79.1308 72.9972 79.1308 73.0023 79.1308C73.4728 79.1308 73.8581 78.7598 73.8661 78.2954C73.875 77.7756 74.3096 77.3585 74.8435 77.3675C75.11 77.3716 75.3558 77.4804 75.5357 77.6739C75.8577 78.0204 76.4045 78.0446 76.7567 77.7281C77.1091 77.4117 77.1339 76.8742 76.8119 76.5278Z" fill="white"/>
<path d="M81.4104 79.2968C81.1455 78.6846 80.6298 78.2015 79.9952 77.9712C78.7191 77.5084 77.2965 78.1515 76.8237 79.4045C76.6577 79.8445 76.886 80.3334 77.3334 80.4967C77.4325 80.5328 77.534 80.5499 77.6338 80.5499C77.9849 80.5499 78.315 80.3381 78.4443 79.9955C78.5862 79.6192 79.0141 79.4266 79.3967 79.5654C79.589 79.6352 79.7393 79.776 79.8196 79.9617C80.0064 80.3935 80.5141 80.5949 80.9532 80.4111C81.3925 80.2275 81.5971 79.7286 81.4104 79.2968Z" fill="white"/>
<path d="M86.9808 71.7721C86.6429 71.4405 86.0957 71.4412 85.7586 71.7733L84.9439 72.5758C84.6067 72.9079 84.6073 73.4459 84.9452 73.7773C85.1138 73.9428 85.3347 74.0255 85.5556 74.0255C85.7771 74.0255 85.9985 73.9423 86.1673 73.776L86.9821 72.9735C87.3192 72.6414 87.3186 72.1034 86.9808 71.7721Z" fill="white"/>
<path d="M81.604 82.7404H80.4521C79.9747 82.7404 79.5879 83.1208 79.5879 83.59C79.5879 84.0592 79.9747 84.4396 80.4521 84.4396H81.604C82.0814 84.4396 82.4683 84.0592 82.4683 83.59C82.4683 83.1208 82.0814 82.7404 81.604 82.7404Z" fill="white"/>
<path d="M90.4352 82.7404H89.2832C88.8058 82.7404 88.4189 83.1208 88.4189 83.59C88.4189 84.0592 88.8059 84.4396 89.2832 84.4396H90.4352C90.9125 84.4396 91.2995 84.0592 91.2995 83.59C91.2995 83.1208 90.9125 82.7404 90.4352 82.7404Z" fill="white"/>
<path d="M112.972 98.0597L112.747 96.8655C112.604 96.1024 111.926 95.5486 111.136 95.5486C111.036 95.5486 110.936 95.5575 110.838 95.5753L106.256 96.4027L108.331 95.0391C108.875 94.6819 109.15 94.0427 109.031 93.4087C108.998 93.235 108.936 93.0684 108.847 92.9124L108.219 91.8194C108.004 91.4438 107.637 91.1648 107.214 91.0543C107.006 90.9999 106.789 90.9878 106.578 91.0148C106.809 89.7613 106.928 88.481 106.928 87.1777C106.928 86.5994 106.574 86.1017 106.069 85.8807C106.729 84.3369 106.774 82.5695 106.121 80.951C106.069 80.8193 105.99 80.7019 105.888 80.6017C105.787 80.5025 105.669 80.4258 105.535 80.3729C104.753 80.0667 103.931 79.9115 103.092 79.9115C102.985 79.9115 102.878 79.9142 102.771 79.9192C102.652 77.5479 100.655 75.6549 98.2181 75.6549C97.8972 75.6549 97.5842 75.6884 97.282 75.7509C97.4919 74.5162 97.3683 73.2244 96.8791 72.0116C96.8266 71.8783 96.7476 71.7587 96.6403 71.6515C96.5371 71.55 96.416 71.4717 96.2816 71.4193C95.4391 71.0894 94.5537 70.9222 93.6498 70.9222C92.2882 70.9222 90.9857 71.2985 89.8613 71.9982C89.4504 70.8283 88.773 69.7301 87.8264 68.7974C87.5492 68.5244 87.1804 68.374 86.7881 68.374C86.3957 68.374 86.027 68.5244 85.7494 68.7976L81.5649 72.9206C80.7905 72.2416 79.7715 71.8357 78.6655 71.8357C78.4145 71.8357 78.1611 71.8574 77.9123 71.8999C77.0108 72.0542 76.1813 72.488 75.5453 73.1233C74.7298 72.7364 73.7956 72.6044 72.8978 72.7581C72.7003 72.7918 72.5086 72.8394 72.3227 72.8974V69.7203C72.3227 67.5324 70.5339 65.7493 68.3212 65.7116V63.9098C68.9985 63.7946 69.5157 63.2143 69.5157 62.516V58.4335C69.5157 57.6527 68.8696 57.0175 68.0752 57.0175H61.047C60.2527 57.0175 59.6066 57.6527 59.6066 58.4335V62.516C59.6066 63.2143 60.1238 63.7946 60.8011 63.9098V65.7114C58.5884 65.7489 56.7997 67.5321 56.7997 69.7201V94.5168C55.0742 96.0487 54 98.1862 54 100.55C54 105.2 58.1513 108.983 63.2541 108.983L97.8458 108.973C99.0265 108.972 100.137 108.462 100.892 107.573C101.628 106.708 101.94 105.584 101.76 104.476L108.669 105.696C108.765 105.713 108.863 105.722 108.96 105.722C109.305 105.722 109.635 105.618 109.914 105.421C110.274 105.169 110.517 104.778 110.582 104.35L110.769 103.115C110.796 102.939 110.793 102.76 110.76 102.586C110.641 101.955 110.152 101.454 109.515 101.31L107.079 100.761L111.656 99.9345C112.088 99.8565 112.463 99.6183 112.711 99.2636C112.959 98.9098 113.052 98.4823 112.972 98.0597ZM103.092 81.6105C103.612 81.6105 104.124 81.6915 104.616 81.8511C105.055 83.1667 104.891 84.5858 104.202 85.758H101.874L102.617 85.026C102.954 84.6939 102.954 84.1559 102.616 83.8245C102.278 83.493 101.73 83.4936 101.394 83.8258L101 84.2131C100.816 83.6167 100.494 83.0827 100.072 82.6446C100.929 81.975 101.982 81.6105 103.092 81.6105ZM98.2181 77.3539C99.779 77.3539 101.049 78.6058 101.049 80.1448C101.049 80.1733 101.047 80.2015 101.047 80.2298C100.136 80.5211 99.2958 81.0076 98.5796 81.6684C98.4656 81.6259 98.3501 81.5865 98.2314 81.5542C97.9786 80.2116 97.0582 79.1354 95.8424 78.6328C96.347 77.8643 97.2225 77.3539 98.2181 77.3539ZM93.6497 72.6212C94.2367 72.6212 94.8135 72.7146 95.3694 72.8992C95.8162 74.2051 95.7249 75.6079 95.1557 76.8229C94.6877 77.2419 94.308 77.7551 94.0485 78.3319C93.8942 78.3408 93.7399 78.3575 93.5875 78.3836C92.9102 78.4995 92.2787 78.7883 91.7503 79.2072C91.5701 78.8833 91.3494 78.5843 91.0966 78.3152L93.0785 76.3624C93.4156 76.0303 93.4149 75.4923 93.077 75.161C92.7391 74.8295 92.1919 74.8301 91.8547 75.1623L89.6885 77.2966C89.2763 77.1051 88.8308 76.9719 88.3626 76.9096C88.5649 75.8957 89.0653 74.9404 89.8395 74.1776C90.858 73.1739 92.2112 72.6212 93.6497 72.6212ZM87.0272 85.758H86.2781C86.1519 85.4424 85.8399 85.2187 85.4741 85.2187C85.1082 85.2187 84.7963 85.4426 84.6701 85.758H83.7888C83.9934 85.4304 83.9521 84.9963 83.6632 84.7129C83.3253 84.3815 82.7781 84.382 82.4409 84.7142L81.6263 85.5166C81.5531 85.5887 81.4969 85.6708 81.4555 85.758H79.6965C79.0377 84.7642 78.6356 83.5912 78.588 82.3293H92.2993C92.2517 83.5912 91.8496 84.7642 91.1908 85.758H89.3603C89.3191 85.6708 89.2626 85.5886 89.1896 85.5165L88.3751 84.714C88.0378 84.382 87.4908 84.3811 87.1529 84.7127C86.8638 84.9961 86.8224 85.4303 87.0272 85.758ZM85.0172 80.63C85.3429 79.4432 86.4442 78.5674 87.7494 78.5674C89.0546 78.5674 90.1559 79.4433 90.4817 80.63H85.0172ZM86.7845 70.1832C87.6066 71.0566 88.1501 72.0935 88.4167 73.1835C87.9754 73.6549 87.6089 74.1758 87.3198 74.73C87.1885 74.651 87.0347 74.6046 86.8695 74.6046H85.7179C85.2406 74.6046 84.8536 74.985 84.8536 75.4542C84.8536 75.9235 85.2406 76.3039 85.7179 76.3039H86.7282C86.6713 76.5385 86.6272 76.7759 86.5952 77.0151C86.252 77.1037 85.9243 77.2299 85.6175 77.3906C85.0415 76.4133 84.0876 75.685 82.9574 75.3928C82.957 75.3905 82.9566 75.3881 82.9561 75.3857C82.8883 75.0012 82.7701 74.6365 82.6089 74.2974L86.7845 70.1832ZM71.1613 77.8496C71.1106 77.7102 71.0722 77.5673 71.047 77.4239C70.7991 76.0191 71.7625 74.6769 73.194 74.4319C73.345 74.4061 73.4984 74.3929 73.6498 74.3929C74.2192 74.3929 74.7633 74.5715 75.2232 74.9091C75.4135 75.0489 75.6541 75.1055 75.8882 75.0656C76.1224 75.0256 76.3294 74.8927 76.4608 74.698C76.8666 74.0964 77.4873 73.6971 78.2087 73.5737C78.36 73.5477 78.5137 73.5347 78.6655 73.5347C79.9459 73.5347 81.0342 74.4353 81.2529 75.6763C81.2781 75.8184 81.291 75.9666 81.2912 76.1167C81.292 76.5565 81.6341 76.923 82.0799 76.9616C83.0461 77.045 83.8686 77.6428 84.2499 78.485C83.7394 79.0873 83.3856 79.8227 83.2512 80.63H78.3224C77.7096 80.63 77.1838 81.0019 76.9645 81.5283C75.8802 80.8022 74.6022 80.4111 73.263 80.4111C72.4239 80.4111 71.602 80.5664 70.8193 80.8727C70.6866 80.9248 70.5679 81.0017 70.4667 81.1012C70.3641 81.202 70.2854 81.3202 70.2338 81.4497C70.0349 81.9429 69.9023 82.4498 69.8306 82.9599C69.5209 82.6133 69.3026 82.1822 69.2173 81.6985C69.0141 80.5458 69.6279 79.398 70.7096 78.9073C71.1162 78.7229 71.3122 78.2638 71.1613 77.8496ZM73.7377 85.5257L73.9735 85.758H71.8978C71.4318 84.6952 71.361 83.4855 71.7393 82.3509C72.2318 82.1911 72.7431 82.1102 73.263 82.1102C74.5652 82.1102 75.7903 82.6105 76.7123 83.5189C76.8349 83.6398 76.9491 83.7665 77.0563 83.8973C77.2028 84.5491 77.4279 85.1718 77.7178 85.7579H76.4153L74.9614 84.3254C74.6241 83.9934 74.0769 83.9924 73.7392 84.324C73.4012 84.6556 73.4005 85.1936 73.7377 85.5257ZM70.0572 85.758H66.9761C67.1135 84.9351 67.6171 84.2335 68.3161 83.8198C68.7299 84.3648 69.27 84.8055 69.8923 85.104C69.9363 85.3244 69.9903 85.5429 70.0572 85.758ZM61.3351 58.7167H67.7872V62.2328H61.3351V58.7167ZM66.5926 63.932V65.7097H62.5297V63.932H66.5926ZM58.5283 73.1656H64.1406C64.618 73.1656 65.0048 72.7852 65.0048 72.316C65.0048 71.8468 64.618 71.4664 64.1406 71.4664H58.5283V69.7201C58.5283 68.4457 59.5797 67.4089 60.8721 67.4089H68.2503C69.5427 67.4089 70.5941 68.4457 70.5941 69.7201V71.4664H68.9804C68.503 71.4664 68.1162 71.8468 68.1162 72.316C68.1162 72.7852 68.503 73.1656 68.9804 73.1656H70.5941V73.9197C69.6039 74.8741 69.0896 76.2737 69.3436 77.7134C69.3441 77.7162 69.3447 77.7192 69.3451 77.7221C67.9586 78.6573 67.2199 80.3198 67.5141 81.9887C67.5312 82.0862 67.5528 82.182 67.5763 82.2768C67.1445 82.5108 66.7567 82.8131 66.4244 83.1667H58.5283V73.1656ZM58.5282 84.8658H65.4208C65.3291 85.1522 65.2643 85.4503 65.2328 85.758H65.0871C64.2917 85.758 63.6444 86.3948 63.6444 87.1775C63.6444 88.5265 63.7719 89.8509 64.0191 91.1466C63.7708 91.127 63.5161 91.1165 63.2571 91.1165C62.2119 91.1165 61.2161 91.2795 60.4533 91.5756C59.2866 92.0285 58.964 92.6716 58.8936 93.1165C58.77 93.177 58.6485 93.2409 58.5282 93.3063V84.8658ZM69.4721 95.303C69.7834 95.5478 69.9736 95.7559 70.0839 95.906C70.0735 95.9061 70.0627 95.9062 70.0517 95.9062C69.5626 95.9062 68.6837 95.7124 67.6843 95.1685C67.3122 94.9658 66.9693 94.7369 66.6928 94.5066C66.3704 94.238 65.8976 94.2382 65.5754 94.5067C65.2988 94.7372 64.9561 94.9661 64.5843 95.1683C63.5847 95.7124 62.7058 95.9062 62.2168 95.9062C62.2056 95.9062 62.1949 95.9061 62.1844 95.906C62.2945 95.7559 62.4848 95.5477 62.7961 95.3027C63.0682 95.0886 63.1829 94.7348 63.0869 94.4054C62.9908 94.076 62.7029 93.8355 62.3566 93.7957C61.5132 93.6985 60.9799 93.4874 60.7302 93.3338C61.0431 93.1423 61.8341 92.8157 63.2574 92.8157C64.4363 92.8157 65.2979 93.0593 65.7111 93.2875C65.974 93.4325 66.2944 93.4325 66.5573 93.2876C66.9707 93.0594 67.8324 92.8158 69.0113 92.8158C70.4348 92.8158 71.2256 93.1425 71.5384 93.3339C71.2888 93.4876 70.7554 93.6986 69.9117 93.7958C69.5654 93.8358 69.2775 94.0761 69.1815 94.4057C69.0852 94.7351 69.1998 95.089 69.4721 95.303ZM67.7433 105.644L67.773 105.801C67.8758 106.347 68.0925 106.848 68.3954 107.283H63.2541C59.1045 107.283 55.7285 104.263 55.7285 100.55C55.7285 98.0125 57.3058 95.7995 59.6285 94.6519C59.8953 94.8477 60.2278 95.0165 60.6224 95.1526C60.4659 95.4153 60.3569 95.6979 60.3312 95.9925C60.2971 96.3842 60.419 96.7562 60.6748 97.0401C61.0128 97.4153 61.5316 97.6055 62.2168 97.6055C63.1299 97.6055 64.328 97.2502 65.4215 96.655C65.6733 96.518 65.9114 96.3734 66.1342 96.2222C66.357 96.3732 66.5951 96.5179 66.847 96.6551C67.9405 97.2502 69.1386 97.6054 70.0517 97.6055H70.0519C70.7368 97.6055 71.2556 97.4153 71.5935 97.0402C71.8494 96.7564 71.9714 96.3843 71.9372 95.9925C71.9115 95.6979 71.8025 95.4153 71.646 95.1526C72.0406 95.0164 72.3732 94.8476 72.64 94.6519C74.482 95.562 75.8546 97.1424 76.344 99.0232L70.2314 101.306C68.4421 101.974 67.3957 103.799 67.7433 105.644ZM99.5656 106.484C99.1394 106.985 98.5122 107.273 97.845 107.273L96.9379 107.274L96.3712 104.266C96.2842 103.804 95.8335 103.499 95.3639 103.585C94.8947 103.67 94.5846 104.113 94.6715 104.575L95.1801 107.274L92.2064 107.275L91.8232 105.241C91.7362 104.78 91.2854 104.475 90.816 104.561C90.3467 104.646 90.0366 105.089 90.1235 105.551L90.4485 107.276L83.5316 107.279L83.0109 104.516C82.9238 104.055 82.4733 103.75 82.0037 103.835C81.5343 103.921 81.2244 104.364 81.3112 104.826L81.7737 107.279L71.6741 107.283C71.6739 107.283 71.6737 107.283 71.6734 107.283C70.5935 107.283 69.6679 106.53 69.4722 105.492L69.4425 105.334C69.2472 104.297 69.8369 103.271 70.8449 102.894L74.2416 101.626L74.4947 102.968C74.5718 103.378 74.935 103.663 75.3434 103.663C75.3957 103.663 75.4487 103.659 75.502 103.649C75.9712 103.564 76.2812 103.12 76.1942 102.659L75.8838 101.013L80.9259 99.1296C81.3721 98.963 81.5964 98.4722 81.4269 98.0336C81.2574 97.5949 80.7577 97.3744 80.3122 97.5411L77.9659 98.4173C77.3077 96.1264 75.6167 94.2128 73.3744 93.1164C73.304 92.6715 72.9814 92.0284 71.8148 91.5755C71.0521 91.2793 70.0562 91.1163 69.0111 91.1163C68.2918 91.1163 67.6049 91.1944 66.9985 91.3366V90.8234C66.9985 90.3542 66.6117 89.9738 66.1342 89.9738C65.9325 89.9738 65.7474 90.0422 65.6003 90.1562C65.4639 89.27 65.3876 88.3698 65.375 87.457H93.5252C94.0026 87.457 94.3895 87.0766 94.3895 86.6074C94.3895 86.1382 94.0026 85.7578 93.5252 85.7578H93.1716C93.7219 84.6436 94.0328 83.3943 94.0328 82.074C94.0328 81.3245 93.4494 80.707 92.7059 80.6368C93.0296 80.3368 93.4336 80.1344 93.884 80.0573C94.0159 80.0348 94.1498 80.0233 94.2821 80.0233C95.3979 80.0233 96.346 80.808 96.5365 81.8889C96.5585 82.0141 96.5698 82.1433 96.5699 82.273C96.5705 82.7129 96.9128 83.0797 97.3586 83.1183C98.3914 83.2074 99.2364 83.971 99.4136 84.9752C99.4606 85.2422 99.4547 85.5057 99.4076 85.7578H98.4803C98.0029 85.7578 97.616 86.1382 97.616 86.6074C97.616 87.0766 98.0029 87.457 98.4803 87.457H105.197C105.176 89.0155 104.972 90.5379 104.591 92.015L99.9072 94.7331C99.6208 93.7529 98.9549 92.9216 98.0376 92.4168C97.0086 91.8507 95.7859 91.7623 94.6831 92.174L85.0368 95.7766C84.5905 95.9432 84.3662 96.434 84.5357 96.8726C84.7052 97.3113 85.2049 97.5315 85.6505 97.3651L86.9213 96.8906L87.3158 98.9848C87.3929 99.3939 87.7562 99.6799 88.1647 99.6799C88.2169 99.6799 88.2699 99.6752 88.3231 99.6655C88.7923 99.5801 89.1024 99.1368 89.0155 98.6755L88.5637 96.2773L95.2967 93.7628C95.9206 93.5299 96.6118 93.5799 97.1934 93.8999C97.7739 94.2192 98.1761 94.7698 98.2968 95.41L100.045 104.689C100.166 105.329 99.991 105.983 99.5656 106.484ZM102.649 99.8335C102.246 99.9064 101.95 100.248 101.941 100.651C101.932 101.053 102.213 101.407 102.612 101.497L109.047 102.948L108.886 104.008L101.426 102.69L100.26 96.5015L106.758 92.731L107.299 93.6732L101.819 97.2745C101.478 97.4985 101.344 97.9269 101.498 98.3003C101.652 98.6736 102.052 98.8893 102.455 98.8165L111.064 97.2619L111.256 98.2792L102.649 99.8335Z" fill="white"/>
</svg>
