<svg width="166" height="166" viewBox="0 0 166 166" fill="none" xmlns="http://www.w3.org/2000/svg">
<circle cx="83" cy="83" r="83" fill="#9ABF11"/>
<path d="M111.841 80.6132C111.714 78.9946 110.291 77.7645 108.674 77.8717C108.149 77.9064 107.625 77.9396 107.1 77.972V76.0553C107.1 63.8938 97.2061 54 85.0447 54C72.8832 54 62.9894 63.8938 62.9894 76.0553V77.9153C62.7532 77.9004 62.5171 77.885 62.2809 77.8692C60.6599 77.7625 59.2725 78.944 59.1176 80.559C59.0396 81.3686 59.2871 82.1558 59.8139 82.7757C60.3412 83.396 61.0784 83.7668 61.8903 83.8206C69.7389 84.339 77.6364 84.5982 85.5335 84.5982C93.3979 84.5982 101.261 84.341 109.064 83.8267C109.866 83.7737 110.597 83.4098 111.123 82.802C111.65 82.1939 111.905 81.4179 111.841 80.6132ZM64.5421 76.0553C64.5421 64.7503 73.7396 55.5527 85.0447 55.5527C96.3497 55.5527 105.547 64.7503 105.547 76.0553V78.0637C104.963 78.0969 104.378 78.1288 103.793 78.1592V76.0553C103.793 65.7175 95.3825 57.3072 85.0447 57.3072C74.7068 57.3072 66.2966 65.7175 66.2966 76.0553V78.1115C65.7115 78.0795 65.1264 78.046 64.5421 78.0112V76.0553ZM102.24 78.2364C90.8035 78.7786 79.2813 78.7641 67.8493 78.1923V76.0553C67.8493 66.5735 75.5629 58.86 85.0447 58.86C94.5264 58.86 102.24 66.5739 102.24 76.0553V78.2364ZM109.949 81.7859C109.697 82.0774 109.347 82.2521 108.962 82.2772C93.3918 83.303 77.5891 83.3014 61.9926 82.2711C61.6036 82.2452 61.2502 82.0677 60.9975 81.7701C60.7448 81.4729 60.6259 81.0956 60.6635 80.7074C60.7347 79.9662 61.3481 79.4155 62.0812 79.4155C62.1135 79.4155 62.1459 79.4163 62.1786 79.4187C77.638 80.4398 93.3158 80.4406 108.776 79.4208C109.551 79.3714 110.233 79.959 110.294 80.7382C110.324 81.1223 110.202 81.4943 109.949 81.7859V81.7859Z" fill="white"/>
<path d="M107.257 85.4485C106.829 85.4053 106.449 85.715 106.406 86.1412C106.351 86.6729 106.285 87.2281 106.207 87.8027C104.07 87.9248 101.928 88.0283 99.7829 88.1132L99.9014 86.6786C99.9366 86.2512 99.6188 85.8763 99.1914 85.8407C98.7635 85.8052 98.3891 86.1234 98.3539 86.5508L98.2201 88.1715C96.4102 88.2358 94.5987 88.2863 92.7855 88.3239L92.8466 86.8444C92.8644 86.4157 92.5312 86.0542 92.103 86.0369C91.678 86.0175 91.3128 86.3519 91.2955 86.7805L91.2304 88.353C89.4281 88.3829 87.6247 88.3999 85.8213 88.4036V86.8727C85.8213 86.4436 85.4735 86.0963 85.0449 86.0963C84.6159 86.0963 84.2685 86.4436 84.2685 86.8727V88.4036C82.4651 88.3999 80.6617 88.3829 78.859 88.353L78.7935 86.7615C78.7757 86.3329 78.411 85.9984 77.986 86.0179C77.5574 86.0352 77.2246 86.3971 77.242 86.8254L77.3039 88.3243C75.4911 88.2867 73.6792 88.2358 71.8697 88.1719L71.7326 86.5128C71.6974 86.0854 71.3218 85.7676 70.8948 85.8027C70.4678 85.8383 70.15 86.2132 70.1851 86.6406L70.3069 88.1132C68.1617 88.0283 66.0199 87.9248 63.8824 87.8031C63.8007 87.2022 63.7328 86.6224 63.677 86.068C63.6337 85.6418 63.254 85.3325 62.8262 85.3741C62.3996 85.4174 62.0887 85.7979 62.1319 86.2245C62.6507 91.3453 64.1339 98.6124 68.2527 104.155C69.5766 105.937 71.693 107 73.9145 107H96.1752C98.3968 107 100.513 105.937 101.837 104.155C105.94 98.6334 107.426 91.3978 107.95 86.3001C107.994 85.8735 107.684 85.4922 107.257 85.4485V85.4485ZM105.968 89.3716C105.727 90.8034 105.404 92.319 104.973 93.8555C103.081 93.9574 101.186 94.0444 99.2872 94.1171L99.6543 89.672C101.762 89.59 103.867 89.4897 105.968 89.3716V89.3716ZM102.617 99.9593C101.343 100.02 100.068 100.073 98.7918 100.121L99.1586 95.6759C100.939 95.6088 102.718 95.5288 104.493 95.4358C103.991 96.965 103.374 98.4935 102.617 99.9593ZM85.8213 105.447V101.926C87.4387 101.922 89.0561 101.909 90.6723 101.884L90.5256 105.447H85.8213ZM79.5642 105.447L79.4174 101.884C81.0337 101.909 82.6511 101.922 84.2685 101.926V105.447H79.5642ZM65.5965 95.4358C67.372 95.5288 69.1504 95.6088 70.9312 95.6759L71.2979 100.121C70.0214 100.073 68.746 100.02 67.4727 99.9593C66.7162 98.4939 66.0991 96.9654 65.5965 95.4358ZM72.4936 95.7317C74.1992 95.7888 75.9068 95.8344 77.6152 95.868L77.798 100.304C76.1506 100.272 74.5045 100.229 72.8604 100.175L72.4936 95.7317ZM79.1704 95.8959C80.8691 95.9222 82.5686 95.9376 84.2685 95.9408V100.373C82.6297 100.37 80.9908 100.356 79.3531 100.331L79.1704 95.8959ZM85.8213 100.373V95.9408C87.5208 95.9372 89.2207 95.9222 90.9194 95.8955L90.7366 100.331C89.099 100.356 87.4601 100.37 85.8213 100.373V100.373ZM92.4746 95.868C94.183 95.8344 95.8906 95.7888 97.5958 95.7317L97.229 100.175C95.5853 100.229 93.9391 100.272 92.2918 100.304L92.4746 95.868ZM98.0915 89.7299L97.7247 94.1738C95.9977 94.2324 94.2687 94.2789 92.5389 94.3137L92.7216 89.8783C94.5129 89.8419 96.303 89.7921 98.0915 89.7299V89.7299ZM91.1665 89.907L90.9837 94.342C89.2636 94.3691 87.5422 94.3844 85.8213 94.3881V89.9563C87.6033 89.9527 89.3853 89.9361 91.1665 89.907V89.907ZM84.2685 89.9563V94.3881C82.5472 94.3844 80.8262 94.3691 79.1061 94.342L78.9233 89.907C80.7045 89.9361 82.4865 89.9527 84.2685 89.9563ZM77.3682 89.8787L77.5509 94.3141C75.8211 94.2793 74.092 94.2324 72.3654 94.1738L71.9983 89.7299C73.7868 89.7925 75.5769 89.8419 77.3682 89.8787ZM70.4354 89.672L70.8026 94.1171C68.9041 94.0444 67.0085 93.9574 65.1161 93.8555C64.6859 92.3202 64.3632 90.8046 64.121 89.3716C66.2224 89.4897 68.3275 89.59 70.4354 89.672V89.672ZM69.4989 103.229C69.097 102.688 68.7214 102.128 68.3704 101.555C69.3882 101.601 70.4071 101.642 71.4269 101.679L71.6991 104.979C70.8362 104.599 70.0723 104 69.4989 103.229V103.229ZM73.293 105.412L72.9894 101.733C74.6116 101.785 76.2364 101.827 77.8623 101.858L78.0103 105.447H73.9145C73.7059 105.447 73.4985 105.435 73.293 105.412ZM92.0795 105.447L92.2275 101.858C93.8534 101.827 95.4781 101.785 97.1004 101.733L96.7967 105.412C96.5913 105.435 96.3839 105.447 96.1752 105.447H92.0795ZM100.591 103.229C100.017 104 99.2536 104.599 98.3907 104.979L98.6633 101.679C99.6831 101.642 100.702 101.601 101.719 101.555C101.368 102.128 100.993 102.688 100.591 103.229Z" fill="white"/>
</svg>
