<svg width="164" height="166" viewBox="0 0 164 166" fill="none" xmlns="http://www.w3.org/2000/svg">
<ellipse cx="82" cy="83" rx="82" ry="83" fill="#9ABF11"/>
<path d="M74.7888 102.826C75.2644 102.826 75.65 102.44 75.65 101.965C75.65 101.489 75.2644 101.104 74.7888 101.104C74.3133 101.104 73.9277 101.489 73.9277 101.965C73.9277 102.44 74.3133 102.826 74.7888 102.826Z" fill="white"/>
<path d="M93.0183 102.826C93.4939 102.826 93.8795 102.44 93.8795 101.965C93.8795 101.489 93.4939 101.104 93.0183 101.104C92.5428 101.104 92.1572 101.489 92.1572 101.965C92.1572 102.44 92.5428 102.826 93.0183 102.826Z" fill="white"/>
<path d="M104.781 92.6468C103.283 90.6433 100.879 89.2132 99.4135 88.9592L97.7335 88.6676C97.5677 88.0761 97.0763 87.6147 96.4447 87.505L94.0739 87.0934C93.5994 87.0109 93.1157 87.1416 92.747 87.4518C92.6443 87.5382 92.5553 87.6366 92.4782 87.7429L90.2246 87.362C90.047 87.0552 89.9413 86.6996 89.9413 86.3804V84.9418C90.4421 84.6227 90.9284 84.2636 91.3976 83.8595C93.3517 82.177 94.5806 79.7467 94.8417 77.0962C96.2734 77.0395 97.4206 75.8571 97.4206 74.4119V73.3973C97.4206 72.578 97.0519 71.8201 96.4318 71.3161V69.0452H97.4633C99.8961 69.0452 101.875 67.0659 101.875 64.633C101.875 63.9681 101.335 63.4271 100.67 63.4271H96.5815L95.9025 58.4939C95.3947 54.8049 91.8916 52.2681 88.1951 52.9994C85.3479 53.5632 82.4605 53.5632 79.6131 52.9994C75.952 52.2749 72.4185 54.7682 71.9057 58.4939L71.2266 63.4271H67.1385C66.4736 63.4271 65.9327 63.9681 65.9327 64.633C65.9327 67.0658 67.912 69.0452 70.3449 69.0452H71.3764V71.3161C70.7563 71.8201 70.3876 72.578 70.3876 73.3973V74.4119C70.3876 75.8571 71.5348 77.0395 72.9665 77.0962C73.2276 79.7467 74.4565 82.177 76.4105 83.8595C76.8797 84.2636 77.366 84.6226 77.8668 84.9418V86.3804C77.8668 86.6996 77.7611 87.0552 77.5835 87.362L75.3299 87.7429C75.2528 87.6366 75.1637 87.5382 75.0611 87.4518C74.6923 87.1418 74.2088 87.0109 73.7342 87.0934L71.3633 87.505C70.7318 87.6147 70.2404 88.0761 70.0746 88.6676L68.3946 88.9592C67.0252 89.1966 64.5924 90.5539 63.0268 92.6468C61.7008 94.4194 61 96.5265 61 98.7403V108.19C61 109.739 62.2605 111 63.8099 111H103.998C105.547 111 106.808 109.739 106.808 108.19V98.7403C106.808 96.5266 106.107 94.4194 104.781 92.6468V92.6468ZM96.2544 100.192C96.4996 101.28 97.0039 102.265 97.7127 103.04C98.4702 103.868 98.8874 104.942 98.8874 106.065V109.297H68.921V106.065C68.921 104.942 69.3382 103.868 70.0957 103.04C70.8307 102.236 71.325 101.287 71.565 100.219C71.6453 99.8616 71.9739 99.6021 72.3464 99.6021H95.4977C95.8592 99.6021 96.1773 99.8501 96.2544 100.192V100.192ZM75.6411 97.8992V91.5477L76.6099 93.0244C77.4638 94.3258 78.9154 95.0827 80.4289 95.0827C81.298 95.0827 81.6873 94.8778 83.904 94.3766C86.1121 94.8759 86.5104 95.0827 87.3791 95.0827C88.8926 95.0827 90.3443 94.3257 91.1981 93.0244L92.167 91.5477V97.8992H75.6411ZM89.7745 92.0902C89.1149 93.0955 87.8861 93.5822 86.7173 93.3014L85.6554 93.0461L89.9959 89.0504L91.592 89.3203L89.7745 92.0902ZM94.7291 70.9988C94.3213 71.0718 93.8177 71.2096 93.3243 71.4691V69.0451H94.7291V70.9988ZM67.6813 65.1299H74.6608C75.131 65.1299 75.5122 64.7488 75.5122 64.2785C75.5122 63.8081 75.131 63.427 74.6608 63.427H72.9457L73.5928 58.7258C73.97 55.9854 76.5698 54.1322 79.2826 54.6698C82.3492 55.2768 85.459 55.2767 88.5258 54.6698C91.2351 54.1336 93.838 55.9817 94.2156 58.7258L94.8627 63.427H78.6301C78.1598 63.427 77.7786 63.8081 77.7786 64.2785C77.7786 64.7488 78.1598 65.1299 78.6301 65.1299H95.8359C95.8367 65.1299 95.8375 65.1301 95.8383 65.1301C95.8388 65.1301 95.8394 65.1299 95.8399 65.1299H100.127C99.8931 66.3874 98.7876 67.3422 97.4634 67.3422C96.5017 67.3422 71.8717 67.3422 70.3446 67.3422C69.0206 67.3422 67.9152 66.3874 67.6813 65.1299V65.1299ZM74.4841 69.0451V71.4691C73.9906 71.2095 73.4871 71.0718 73.0793 70.9988V69.0451H74.4841ZM74.6192 76.2285C74.6093 75.7655 74.2312 75.3953 73.768 75.3953H73.074C72.5317 75.3953 72.0905 74.954 72.0905 74.4118V73.3972C72.0905 73.0946 72.2299 72.8165 72.4614 72.6318C72.8433 72.6651 73.6424 72.7969 74.1766 73.3255C74.9179 74.0587 76.1872 73.5345 76.1872 72.4834V69.045H91.6215V72.4834C91.6215 73.5329 92.8896 74.06 93.6322 73.3252C94.166 72.7969 94.9671 72.6647 95.3468 72.6315C95.5785 72.816 95.718 73.0945 95.718 73.3972V74.4118C95.718 74.954 95.2768 75.3953 94.7345 75.3953H94.0405C93.5774 75.3953 93.1992 75.7655 93.1893 76.2285C93.1358 78.7158 92.078 81.0268 90.2867 82.5691C86.4948 85.8344 81.3151 85.8354 77.5218 82.5691C75.7306 81.0268 74.6726 78.7158 74.6192 76.2285V76.2285ZM88.2386 85.8387V86.3804C88.2386 86.9247 88.3771 87.4847 88.6298 87.9934L83.9042 92.3436L79.1786 87.9936C79.4314 87.4848 79.5697 86.9247 79.5697 86.3804V85.8387C82.3392 87.0078 85.4139 87.0312 88.2386 85.8387ZM77.8124 89.0504L82.1529 93.0461C81.8426 93.0506 79.4217 94.2057 78.0338 92.0902L76.2163 89.3203L77.8124 89.0504ZM73.9383 88.7863V97.8992H72.3464C72.1293 97.8992 71.9183 97.9266 71.7166 97.9779V89.1721L73.9383 88.7863ZM62.703 108.19V98.7403C62.703 96.8971 63.2866 95.1427 64.3906 93.6667C65.4852 92.2035 66.9866 91.1537 68.7353 90.6286L70.0137 90.4066V99.4884C69.9693 99.6034 69.9312 99.7221 69.9035 99.8457C69.7293 100.621 69.3713 101.309 68.8391 101.891C67.7939 103.034 67.2182 104.516 67.2182 106.065V109.297H63.8102C63.1997 109.297 62.703 108.8 62.703 108.19V108.19ZM105.105 108.19C105.105 108.8 104.609 109.297 103.998 109.297H100.59V106.065C100.59 104.516 100.015 103.034 98.9693 101.891C98.4528 101.326 98.0983 100.628 97.9155 99.8177C97.8859 99.6861 97.8447 99.5592 97.7946 99.4369V96.2169C97.7946 95.7465 97.4134 95.3654 96.9431 95.3654C96.4729 95.3654 96.0917 95.7465 96.0917 96.2169V97.9734C95.9 97.9257 95.7011 97.8993 95.4977 97.8993H93.87V88.7864L96.0917 89.1722V92.2474C96.0917 92.7177 96.4729 93.0988 96.9431 93.0988C97.4134 93.0988 97.7946 92.7177 97.7946 92.2474V90.4066L99.073 90.6286C100.822 91.1537 102.323 92.2035 103.418 93.6667C104.522 95.1427 105.105 96.8971 105.105 98.7403V108.19Z" fill="white"/>
</svg>
