<svg width="59" height="58" viewBox="0 0 59 58" fill="none" xmlns="http://www.w3.org/2000/svg">
<path d="M22.8119 22.5278C22.3149 21.993 21.6073 21.6798 20.8706 21.6686C19.3888 21.6499 18.1629 22.8112 18.1378 24.2668C18.1298 24.736 18.5101 25.1227 18.9873 25.1306C18.9924 25.1308 18.9972 25.1308 19.0023 25.1308C19.4728 25.1308 19.8581 24.7598 19.8661 24.2954C19.875 23.7756 20.3096 23.3585 20.8435 23.3675C21.11 23.3716 21.3558 23.4804 21.5357 23.6739C21.8577 24.0204 22.4045 24.0446 22.7567 23.7281C23.1091 23.4117 23.1339 22.8742 22.8119 22.5278Z" fill="white"/>
<path d="M27.4104 25.2968C27.1455 24.6846 26.6298 24.2015 25.9952 23.9712C24.7191 23.5084 23.2965 24.1515 22.8237 25.4045C22.6577 25.8445 22.886 26.3334 23.3334 26.4967C23.4325 26.5328 23.534 26.5499 23.6338 26.5499C23.9849 26.5499 24.315 26.3381 24.4443 25.9955C24.5862 25.6192 25.0141 25.4266 25.3967 25.5654C25.589 25.6352 25.7393 25.776 25.8196 25.9617C26.0064 26.3935 26.5141 26.5949 26.9532 26.4111C27.3925 26.2275 27.5971 25.7286 27.4104 25.2968Z" fill="white"/>
<path d="M32.9808 17.7721C32.6429 17.4405 32.0957 17.4412 31.7586 17.7733L30.9439 18.5758C30.6067 18.9079 30.6073 19.4459 30.9452 19.7773C31.1138 19.9428 31.3347 20.0255 31.5556 20.0255C31.7771 20.0255 31.9985 19.9423 32.1673 19.776L32.9821 18.9735C33.3192 18.6414 33.3186 18.1034 32.9808 17.7721Z" fill="white"/>
<path d="M27.604 28.7404H26.4521C25.9747 28.7404 25.5879 29.1208 25.5879 29.59C25.5879 30.0592 25.9747 30.4396 26.4521 30.4396H27.604C28.0814 30.4396 28.4683 30.0592 28.4683 29.59C28.4683 29.1208 28.0814 28.7404 27.604 28.7404Z" fill="white"/>
<path d="M36.4352 28.7404H35.2832C34.8058 28.7404 34.4189 29.1208 34.4189 29.59C34.4189 30.0592 34.8059 30.4396 35.2832 30.4396H36.4352C36.9125 30.4396 37.2995 30.0592 37.2995 29.59C37.2995 29.1208 36.9125 28.7404 36.4352 28.7404Z" fill="white"/>
<path d="M58.9722 44.0597L58.7472 42.8655C58.6037 42.1024 57.9259 41.5486 57.1355 41.5486C57.0363 41.5486 56.9363 41.5575 56.8379 41.5753L52.2562 42.4027L54.3311 41.0391C54.8748 40.6819 55.1497 40.0427 55.0311 39.4087C54.9981 39.235 54.9364 39.0684 54.847 38.9124L54.219 37.8194C54.0039 37.4438 53.637 37.1648 53.2135 37.0543C53.0061 36.9999 52.7892 36.9878 52.5777 37.0148C52.8087 35.7613 52.9279 34.481 52.9279 33.1777C52.9279 32.5994 52.5741 32.1017 52.0688 31.8807C52.7291 30.3369 52.7741 28.5695 52.1214 26.951C52.0686 26.8193 51.99 26.7019 51.8882 26.6017C51.7873 26.5025 51.6692 26.4258 51.5351 26.3729C50.753 26.0667 49.9311 25.9115 49.0921 25.9115C48.9848 25.9115 48.878 25.9142 48.7715 25.9192C48.6518 23.5479 46.6553 21.6549 44.2181 21.6549C43.8972 21.6549 43.5842 21.6884 43.282 21.7509C43.4919 20.5162 43.3683 19.2244 42.8791 18.0116C42.8266 17.8783 42.7476 17.7587 42.6403 17.6515C42.5371 17.55 42.416 17.4717 42.2816 17.4193C41.4391 17.0894 40.5537 16.9222 39.6498 16.9222C38.2882 16.9222 36.9857 17.2985 35.8613 17.9982C35.4504 16.8283 34.773 15.7301 33.8265 14.7974C33.5492 14.5244 33.1805 14.374 32.7881 14.374C32.3957 14.374 32.027 14.5244 31.7494 14.7976L27.5649 18.9206C26.7905 18.2416 25.7715 17.8357 24.6655 17.8357C24.4145 17.8357 24.1611 17.8574 23.9123 17.9C23.0108 18.0542 22.1813 18.488 21.5453 19.1233C20.7298 18.7364 19.7956 18.6044 18.8978 18.7581C18.7003 18.7918 18.5086 18.8394 18.3227 18.8974V15.7203C18.3227 13.5324 16.5339 11.7493 14.3212 11.7116V9.9098C14.9985 9.79459 15.5157 9.21426 15.5157 8.51599V4.43347C15.5157 3.65273 14.8696 3.01746 14.0752 3.01746H7.04701C6.25271 3.01746 5.60659 3.65273 5.60659 4.43347V8.51599C5.60659 9.21426 6.12376 9.79459 6.8011 9.9098V11.7114C4.58838 11.7489 2.79972 13.5321 2.79972 15.7201V40.5168C1.07421 42.0487 0 44.1862 0 46.5499C0 51.1996 4.1513 54.9825 9.25409 54.9825L43.8458 54.9726C45.0265 54.9721 46.1369 54.462 46.8921 53.5732C47.6278 52.708 47.9404 51.5841 47.7603 50.4758L54.6694 51.6964C54.765 51.7132 54.863 51.7219 54.9601 51.7219C55.3047 51.7219 55.6348 51.6179 55.9144 51.4214C56.2738 51.169 56.517 50.7783 56.5819 50.3498L56.7691 49.1154C56.796 48.9385 56.793 48.7605 56.7602 48.5859C56.6413 47.9547 56.1523 47.4539 55.5145 47.3102L53.0793 46.7611L57.6565 45.9345C58.0881 45.8565 58.4627 45.6183 58.7111 45.2636C58.9591 44.9098 59.0517 44.4823 58.9722 44.0597ZM49.0921 27.6105C49.6123 27.6105 50.1239 27.6915 50.6157 27.8511C51.0552 29.1667 50.8906 30.5858 50.2025 31.758H47.8743L48.6172 31.026C48.9544 30.6939 48.9537 30.1559 48.6157 29.8245C48.2777 29.493 47.7305 29.4936 47.3935 29.8258L47.0005 30.2131C46.8162 29.6167 46.4945 29.0827 46.0715 28.6446C46.9293 27.975 47.9824 27.6105 49.0921 27.6105ZM44.2181 23.3539C45.779 23.3539 47.0487 24.6058 47.0487 26.1448C47.0487 26.1733 47.0473 26.2015 47.0465 26.2298C46.1355 26.5211 45.2958 27.0076 44.5796 27.6684C44.4656 27.6259 44.3501 27.5865 44.2314 27.5542C43.9786 26.2116 43.0582 25.1354 41.8424 24.6328C42.347 23.8643 43.2225 23.3539 44.2181 23.3539ZM39.6497 18.6212C40.2367 18.6212 40.8135 18.7146 41.3694 18.8992C41.8162 20.2051 41.7249 21.6079 41.1557 22.8229C40.6877 23.2419 40.308 23.7551 40.0485 24.3319C39.8942 24.3408 39.7399 24.3575 39.5875 24.3836C38.9102 24.4995 38.2787 24.7883 37.7503 25.2072C37.5701 24.8833 37.3494 24.5843 37.0966 24.3152L39.0785 22.3624C39.4156 22.0303 39.4149 21.4923 39.077 21.161C38.7391 20.8295 38.1919 20.8301 37.8547 21.1623L35.6885 23.2966C35.2763 23.1051 34.8308 22.9719 34.3626 22.9096C34.5649 21.8957 35.0653 20.9404 35.8395 20.1776C36.858 19.1739 38.2112 18.6212 39.6497 18.6212ZM33.0272 31.758H32.2781C32.1519 31.4424 31.8399 31.2187 31.4741 31.2187C31.1082 31.2187 30.7963 31.4426 30.6701 31.758H29.7888C29.9934 31.4304 29.9521 30.9963 29.6632 30.7129C29.3253 30.3815 28.7781 30.382 28.4409 30.7142L27.6263 31.5166C27.5531 31.5887 27.4969 31.6708 27.4555 31.758H25.6965C25.0377 30.7642 24.6356 29.5912 24.588 28.3293H38.2993C38.2517 29.5912 37.8496 30.7642 37.1908 31.758H35.3603C35.3191 31.6708 35.2626 31.5886 35.1896 31.5165L34.3751 30.714C34.0378 30.382 33.4908 30.3811 33.1529 30.7127C32.8638 30.9961 32.8224 31.4303 33.0272 31.758ZM31.0172 26.63C31.3429 25.4432 32.4442 24.5674 33.7494 24.5674C35.0546 24.5674 36.1559 25.4433 36.4817 26.63H31.0172ZM32.7845 16.1832C33.6066 17.0566 34.1501 18.0935 34.4167 19.1835C33.9754 19.6549 33.6089 20.1758 33.3198 20.73C33.1885 20.651 33.0347 20.6046 32.8695 20.6046H31.7179C31.2406 20.6046 30.8536 20.985 30.8536 21.4542C30.8536 21.9235 31.2406 22.3039 31.7179 22.3039H32.7282C32.6713 22.5385 32.6272 22.7759 32.5952 23.0151C32.252 23.1037 31.9243 23.2299 31.6175 23.3906C31.0415 22.4133 30.0876 21.685 28.9574 21.3929C28.957 21.3905 28.9566 21.3881 28.9561 21.3857C28.8883 21.0012 28.7701 20.6365 28.6089 20.2974L32.7845 16.1832ZM17.1613 23.8496C17.1106 23.7102 17.0722 23.5673 17.047 23.4239C16.7991 22.0191 17.7625 20.6769 19.194 20.4319C19.345 20.4061 19.4984 20.3929 19.6498 20.3929C20.2192 20.3929 20.7633 20.5715 21.2232 20.9091C21.4135 21.0489 21.6541 21.1055 21.8882 21.0656C22.1224 21.0256 22.3294 20.8927 22.4608 20.698C22.8666 20.0964 23.4873 19.6971 24.2087 19.5737C24.36 19.5477 24.5137 19.5347 24.6655 19.5347C25.9459 19.5347 27.0342 20.4353 27.2529 21.6763C27.2781 21.8184 27.291 21.9666 27.2912 22.1167C27.292 22.5565 27.6341 22.923 28.0799 22.9616C29.0461 23.045 29.8686 23.6428 30.2499 24.485C29.7395 25.0873 29.3856 25.8227 29.2512 26.63H24.3224C23.7096 26.63 23.1838 27.0019 22.9645 27.5283C21.8802 26.8022 20.6022 26.4111 19.263 26.4111C18.4239 26.4111 17.602 26.5664 16.8193 26.8727C16.6866 26.9248 16.5679 27.0017 16.4667 27.1012C16.3641 27.202 16.2854 27.3202 16.2338 27.4497C16.0349 27.9429 15.9023 28.4498 15.8306 28.9599C15.5209 28.6133 15.3026 28.1822 15.2173 27.6985C15.0141 26.5458 15.6279 25.398 16.7096 24.9073C17.1162 24.7229 17.3122 24.2638 17.1613 23.8496ZM19.7377 31.5257L19.9735 31.758H17.8978C17.4318 30.6952 17.361 29.4855 17.7393 28.3509C18.2318 28.1911 18.7431 28.1102 19.263 28.1102C20.5652 28.1102 21.7903 28.6105 22.7123 29.5189C22.8349 29.6398 22.9491 29.7665 23.0563 29.8973C23.2028 30.5491 23.4279 31.1718 23.7178 31.7579H22.4153L20.9614 30.3254C20.6241 29.9934 20.0769 29.9924 19.7392 30.324C19.4012 30.6556 19.4005 31.1936 19.7377 31.5257ZM16.0572 31.758H12.9761C13.1135 30.9351 13.6171 30.2335 14.3161 29.8198C14.7299 30.3648 15.27 30.8055 15.8923 31.104C15.9363 31.3244 15.9903 31.5429 16.0572 31.758ZM7.3351 4.71667H13.7872V8.23279H7.3351V4.71667ZM12.5926 9.932V11.7097H8.52973V9.932H12.5926ZM4.52835 19.1656H10.1406C10.618 19.1656 11.0048 18.7852 11.0048 18.316C11.0048 17.8468 10.618 17.4664 10.1406 17.4664H4.52835V15.7201C4.52835 14.4457 5.57974 13.4089 6.87209 13.4089H14.2503C15.5427 13.4089 16.5941 14.4457 16.5941 15.7201V17.4664H14.9804C14.503 17.4664 14.1162 17.8468 14.1162 18.316C14.1162 18.7852 14.503 19.1656 14.9804 19.1656H16.5941V19.9197C15.6039 20.8741 15.0896 22.2737 15.3436 23.7134C15.3441 23.7162 15.3447 23.7192 15.3451 23.7221C13.9586 24.6573 13.2199 26.3198 13.5141 27.9887C13.5312 28.0862 13.5528 28.182 13.5763 28.2768C13.1445 28.5108 12.7567 28.8131 12.4244 29.1667H4.52835V19.1656ZM4.52823 30.8658H11.4208C11.3291 31.1522 11.2643 31.4503 11.2328 31.758H11.0871C10.2917 31.758 9.64439 32.3948 9.64439 33.1775C9.64439 34.5265 9.77195 35.8509 10.0191 37.1466C9.7708 37.127 9.51613 37.1165 9.25708 37.1165C8.21191 37.1165 7.21606 37.2795 6.45333 37.5756C5.28659 38.0285 4.96405 38.6716 4.89364 39.1165C4.76999 39.177 4.64854 39.2409 4.52823 39.3063V30.8658ZM15.4721 41.303C15.7834 41.5478 15.9736 41.7559 16.0839 41.906C16.0735 41.9061 16.0627 41.9062 16.0517 41.9062C15.5626 41.9062 14.6837 41.7124 13.6843 41.1685C13.3122 40.9658 12.9693 40.7369 12.6928 40.5066C12.3704 40.238 11.8976 40.2382 11.5754 40.5067C11.2988 40.7372 10.9561 40.9661 10.5843 41.1683C9.58469 41.7124 8.70581 41.9062 8.21675 41.9062C8.20557 41.9062 8.19486 41.9061 8.18437 41.906C8.29454 41.7559 8.48479 41.5477 8.79615 41.3027C9.06822 41.0886 9.18287 40.7348 9.08688 40.4054C8.99078 40.076 8.70292 39.8355 8.35665 39.7957C7.51325 39.6985 6.97995 39.4874 6.73024 39.3338C7.0431 39.1423 7.83406 38.8157 9.25743 38.8157C10.4363 38.8157 11.2979 39.0593 11.7111 39.2875C11.974 39.4325 12.2944 39.4325 12.5573 39.2876C12.9707 39.0594 13.8324 38.8158 15.0113 38.8158C16.4348 38.8158 17.2256 39.1425 17.5384 39.3339C17.2888 39.4876 16.7554 39.6986 15.9117 39.7958C15.5654 39.8358 15.2775 40.0761 15.1815 40.4057C15.0852 40.7351 15.1998 41.089 15.4721 41.303ZM13.7433 51.6439L13.773 51.8014C13.8758 52.3471 14.0925 52.8479 14.3954 53.2833H9.25409C5.10452 53.2833 1.72851 50.2628 1.72851 46.5499C1.72851 44.0125 3.30583 41.7995 5.62848 40.6519C5.89525 40.8477 6.22782 41.0165 6.62238 41.1526C6.46589 41.4153 6.35688 41.6979 6.33118 41.9925C6.29707 42.3842 6.41899 42.7562 6.67481 43.0401C7.01279 43.4153 7.53157 43.6055 8.21675 43.6055C9.12987 43.6055 10.328 43.2502 11.4215 42.655C11.6733 42.518 11.9114 42.3734 12.1342 42.2222C12.357 42.3732 12.5951 42.5179 12.847 42.6551C13.9405 43.2502 15.1386 43.6054 16.0517 43.6055H16.0519C16.7368 43.6055 17.2556 43.4153 17.5935 43.0402C17.8494 42.7564 17.9714 42.3843 17.9372 41.9925C17.9115 41.6979 17.8025 41.4153 17.646 41.1526C18.0406 41.0164 18.3732 40.8476 18.64 40.6519C20.482 41.562 21.8546 43.1424 22.344 45.0232L16.2314 47.3059C14.4421 47.9743 13.3957 49.7986 13.7433 51.6439ZM45.5656 52.4838C45.1394 52.9854 44.5122 53.2731 43.845 53.2734L42.9379 53.2737L42.3712 50.2655C42.2842 49.8041 41.8335 49.4991 41.3639 49.5848C40.8947 49.6702 40.5846 50.1135 40.6715 50.5749L41.1801 53.2743L38.2064 53.2754L37.8232 51.2412C37.7362 50.7798 37.2854 50.4751 36.816 50.5605C36.3467 50.6459 36.0366 51.0892 36.1235 51.5506L36.4485 53.2761L29.5316 53.2787L29.0109 50.516C28.9238 50.0546 28.4733 49.7499 28.0037 49.8354C27.5343 49.9208 27.2244 50.3642 27.3112 50.8256L27.7737 53.2794L17.6741 53.2832C17.6739 53.2832 17.6737 53.2832 17.6734 53.2832C16.5935 53.2832 15.6679 52.5299 15.4722 51.4916L15.4425 51.3341C15.2472 50.2969 15.8369 49.2709 16.8449 48.8944L20.2416 47.6259L20.4947 48.9685C20.5718 49.3775 20.935 49.6634 21.3434 49.6634C21.3957 49.6634 21.4487 49.6587 21.502 49.649C21.9712 49.5635 22.2812 49.1203 22.1942 48.6589L21.8838 47.0126L26.9259 45.1296C27.3721 44.963 27.5964 44.4722 27.4269 44.0336C27.2574 43.5949 26.7577 43.3744 26.3122 43.5411L23.9659 44.4173C23.3077 42.1264 21.6167 40.2128 19.3744 39.1164C19.304 38.6715 18.9814 38.0284 17.8148 37.5755C17.0521 37.2794 16.0562 37.1163 15.0111 37.1163C14.2918 37.1163 13.6049 37.1944 12.9985 37.3366V36.8234C12.9985 36.3542 12.6117 35.9738 12.1342 35.9738C11.9325 35.9738 11.7474 36.0422 11.6003 36.1562C11.4639 35.27 11.3876 34.3698 11.375 33.457H39.5252C40.0026 33.457 40.3895 33.0766 40.3895 32.6074C40.3895 32.1382 40.0026 31.7578 39.5252 31.7578H39.1716C39.7219 30.6436 40.0328 29.3943 40.0328 28.074C40.0328 27.3245 39.4494 26.707 38.7059 26.6368C39.0296 26.3368 39.4336 26.1344 39.8839 26.0573C40.0159 26.0348 40.1498 26.0233 40.2821 26.0233C41.3979 26.0233 42.346 26.808 42.5365 27.8889C42.5585 28.0141 42.5698 28.1433 42.5699 28.273C42.5705 28.7129 42.9128 29.0797 43.3586 29.1183C44.3914 29.2074 45.2365 29.971 45.4136 30.9752C45.4606 31.2422 45.4547 31.5057 45.4076 31.7578H44.4803C44.0029 31.7578 43.616 32.1382 43.616 32.6074C43.616 33.0766 44.0029 33.457 44.4803 33.457H51.1975C51.1761 35.0155 50.9719 36.5379 50.591 38.015L45.9072 40.7331C45.6208 39.7529 44.9549 38.9216 44.0376 38.4168C43.0086 37.8507 41.7859 37.7623 40.6831 38.174L31.0368 41.7766C30.5905 41.9432 30.3662 42.434 30.5357 42.8726C30.7052 43.3113 31.2049 43.5315 31.6505 43.3651L32.9213 42.8906L33.3158 44.9848C33.3929 45.3939 33.7562 45.6799 34.1647 45.6799C34.2169 45.6799 34.2699 45.6752 34.3231 45.6655C34.7923 45.5801 35.1024 45.1368 35.0155 44.6755L34.5637 42.2773L41.2967 39.7628C41.9206 39.5299 42.6118 39.5799 43.1934 39.8999C43.7739 40.2192 44.1761 40.7698 44.2968 41.41L46.0453 50.6894C46.1658 51.3293 45.991 51.9833 45.5656 52.4838ZM48.6492 45.8335C48.246 45.9064 47.9504 46.2476 47.9413 46.6505C47.9323 47.0534 48.2126 47.4071 48.6121 47.4972L55.0468 48.9481L54.886 50.0083L47.4265 48.6905L46.2604 42.5015L52.7578 38.731L53.299 39.6732L47.8187 43.2745C47.478 43.4985 47.3441 43.9269 47.4983 44.3003C47.6523 44.6736 48.0522 44.8893 48.4553 44.8165L57.0639 43.2619L57.2557 44.2792L48.6492 45.8335Z" fill="white"/>
</svg>
