<svg width="91" height="90" viewBox="0 0 91 90" fill="none" xmlns="http://www.w3.org/2000/svg">
<rect x="0.0332031" y="0.00012207" width="6.03799" height="43.3195" fill="#C1CBB0"/>
<rect x="90.9795" y="90" width="6.03799" height="43.3195" transform="rotate(180 90.9795 90)" fill="#F1E7D6"/>
<rect x="43.8076" y="46.6805" width="5.9751" height="43.7755" transform="rotate(90 43.8076 46.6805)" fill="#C9DBB3"/>
<rect x="47.2041" y="43.3196" width="5.9751" height="43.7755" transform="rotate(-90 47.2041 43.3196)" fill="#80906C"/>
<rect x="18.9014" width="6.03799" height="43.3195" fill="#C1CBB0"/>
<rect x="72.1113" y="90" width="6.03799" height="43.3195" transform="rotate(180 72.1113 90)" fill="#F1E7D6"/>
<rect x="43.8076" y="65.3528" width="5.9751" height="43.7755" transform="rotate(90 43.8076 65.3528)" fill="#C9DBB3"/>
<rect x="47.2041" y="24.6473" width="5.9751" height="43.7755" transform="rotate(-90 47.2041 24.6473)" fill="#80906C"/>
<rect x="9.4668" width="6.03798" height="43.3195" fill="#C1CBB0"/>
<rect x="81.5449" y="90" width="6.03799" height="43.3195" transform="rotate(180 81.5449 90)" fill="#F1E7D6"/>
<rect x="43.8076" y="56.0166" width="5.9751" height="43.7755" transform="rotate(90 43.8076 56.0166)" fill="#C9DBB3"/>
<rect x="47.2041" y="33.9834" width="5.9751" height="43.7755" transform="rotate(-90 47.2041 33.9834)" fill="#80906C"/>
<rect x="28.3359" width="6.03799" height="43.3195" fill="#C1CBB0"/>
<rect x="62.6768" y="90" width="6.03801" height="43.3195" transform="rotate(180 62.6768 90)" fill="#F1E7D6"/>
<rect x="43.8076" y="74.6888" width="5.9751" height="43.7755" transform="rotate(90 43.8076 74.6888)" fill="#C9DBB3"/>
<rect x="47.2041" y="15.3113" width="5.9751" height="43.7755" transform="rotate(-90 47.2041 15.3113)" fill="#80906C"/>
<rect x="37.7695" width="6.03799" height="43.3195" fill="#C1CBB0"/>
<rect x="53.2422" y="90" width="6.03797" height="43.3195" transform="rotate(180 53.2422 90)" fill="#F1E7D6"/>
<rect x="43.8076" y="84.0249" width="5.97511" height="43.7755" transform="rotate(90 43.8076 84.0249)" fill="#C9DBB3"/>
<rect x="47.2041" y="5.9751" width="5.9751" height="43.7755" transform="rotate(-90 47.2041 5.9751)" fill="#80906C"/>
</svg>
